# xmcd
#
# Track frame offsets:
# 183
# 49693
# 71398
# 97723
# 138630
# 182648
# 233745
# 258948
#
# Disc length: 4054 seconds
#
#
# Revision: 2
# Processed by: cddbd v1.5.2PL0 Copyright (c) Steve Scherf et al.
# Submitted via: FreeRIP 2.943 
#
DISCID=610fd408
DTITLE=Schumann Symphony #4 , Dvorak Sympony #8 - Schumann Symphony #4 , Dvorak Sympony #8
DYEAR=1900
DGENRE=
TTITLE0=Schumann Symphony #4
TTITLE1=Schumann Symphony #4
TTITLE2=Schumann Symphony #4
TTITLE3=Schumann Symphony #4
TTITLE4=Dvojak Symphony #8
TTITLE5=Dvojak Symphony #8
TTITLE6=Dvojak Symphony #8
TTITLE7=Dvojak Symphony #8
EXTD=Helbert von Karajan\nWinner Philharmoniker
EXTT0=Ziemlich langsam - Lebhaft
EXTT1=Romanze,Ziemlich langsam
EXTT2=Cherzo,Lebhaft
EXTT3=Langsam - Lebhaft
EXTT4=Allegro con brio
EXTT5=Adagio
EXTT6=Alellegro grazioso - Molto vivace
EXTT7=Allegro ma non troppo
PLAYORDER=
